<svg xmlns="http://www.w3.org/2000/svg" width="37.882" height="28" viewBox="0 0 37.882 28"><defs><style>.a{fill:#777877;}.b{fill:rgba(119,120,119,0.5);}.c{fill:rgba(80,75,90,0.5);}.d{fill:#fd0;}.e{fill:#231f20;}</style></defs><path class="a" d="M19.785,10.941h-.117v8.624h.117Z" transform="translate(12.726 7.079)"/><path class="a" d="M25.462,13.522h-8.27v.122h8.27Z" transform="translate(11.124 8.749)"/><path class="a" d="M23.75,11.682,17.9,17.78l.083.086,5.848-6.1Z" transform="translate(11.584 7.559)"/><path class="a" d="M17.986,11.681l-.083.087,5.848,6.1.083-.087Z" transform="translate(11.584 7.558)"/><path class="b" d="M3.93,10.941H3.813v8.624H3.93Z" transform="translate(2.467 7.079)"/><path class="c" d="M9.608,13.522H1.338v.122h8.27Z" transform="translate(0.866 8.749)"/><path class="c" d="M7.9,11.682l-5.848,6.1.083.087,5.848-6.1Z" transform="translate(1.325 7.559)"/><path class="c" d="M2.13,11.681l-.083.087,5.848,6.1.083-.087Z" transform="translate(1.325 7.558)"/><path class="c" d="M7.786,10.635l.17-.641a7.045,7.045,0,0,0-.713-.213l-.174.658a5.489,5.489,0,0,0-1.086-.1,5.274,5.274,0,0,0-3.017.954,5.62,5.62,0,0,0-2,2.542,5.889,5.889,0,0,0-.309,3.272,5.743,5.743,0,0,0,1.486,2.9,5.366,5.366,0,0,0,2.781,1.55,5.223,5.223,0,0,0,3.138-.322A5.487,5.487,0,0,0,10.5,19.154a5.815,5.815,0,0,0-2.712-8.519Zm-1.8,8.717a3.141,3.141,0,0,1-2.268-.979,3.446,3.446,0,0,1,0-4.729,3.141,3.141,0,0,1,2.268-.979,1.309,1.309,0,0,1,.49.035l-.4,1.516c-.029,0-.059,0-.089,0a1.685,1.685,0,0,0-1.144.451,1.825,1.825,0,0,0-.57,1.129,1.859,1.859,0,0,0,.291,1.239,1.727,1.727,0,0,0,1.006.726A1.663,1.663,0,0,0,6.779,17.6a1.777,1.777,0,0,0,.813-.953,1.872,1.872,0,0,0,0-1.276,1.778,1.778,0,0,0-.809-.957l.4-1.5a3.512,3.512,0,0,1,2,3.093,3.422,3.422,0,0,1-.94,2.364A3.145,3.145,0,0,1,5.982,19.352Z" transform="translate(0.357 6.329)"/><path class="c" d="M22.469,11.093a5.207,5.207,0,0,0-2.124.5l-.526-1.068a6.252,6.252,0,0,1,4.122-.42c.3-1.447.047-.182.286-1.285a7.736,7.736,0,0,0-8.606,4.024l-.19-.1c1.316.721-.01.03,1.3.742a6.729,6.729,0,0,1,2.431-2.611l.52,1.058A5.775,5.775,0,0,0,17.951,19.9a5.487,5.487,0,0,0,2.437,2.086,5.224,5.224,0,0,0,3.138.322,5.365,5.365,0,0,0,2.781-1.55,5.743,5.743,0,0,0,1.486-2.9,5.89,5.89,0,0,0-.309-3.272,5.617,5.617,0,0,0-2-2.542,5.272,5.272,0,0,0-3.017-.954Zm0,9.008a3.145,3.145,0,0,1-2.267-.98,3.353,3.353,0,0,1,.508-5.088l.66,1.339a1.852,1.852,0,0,0-.627,1.139,1.9,1.9,0,0,0,.264,1.284,1.765,1.765,0,0,0,1.02.77,1.693,1.693,0,0,0,1.252-.138,1.809,1.809,0,0,0,.843-.976,1.908,1.908,0,0,0,0-1.313,1.81,1.81,0,0,0-.841-.977,1.693,1.693,0,0,0-1.252-.14l-.655-1.332a2.7,2.7,0,0,1,1.093-.276,3.141,3.141,0,0,1,2.267.98,3.446,3.446,0,0,1,0,4.729,3.142,3.142,0,0,1-2.267.98Z" transform="translate(9.984 5.58)"/><path class="c" d="M19.33,8.377a3.056,3.056,0,0,1,.635-.4l-1.8-3.655c0-.02.005-.039.005-.06a.792.792,0,0,0-.176-.5.733.733,0,0,0-.444-.262V1.739L16.588,0c-.533,0-.965.778-.965,1.739s.432,1.739.965,1.739l.593-1.071V3.486H14.414a.726.726,0,0,0-.524.227.8.8,0,0,0,0,1.094.726.726,0,0,0,.524.227h2.364a3.031,3.031,0,0,0-1.369,1.029.4.4,0,0,0-.064.216v.367a.4.4,0,0,0,.028.148.388.388,0,0,0,.08.125.371.371,0,0,0,.12.084.357.357,0,0,0,.284,0,.37.37,0,0,0,.12-.084.389.389,0,0,0,.081-.125.4.4,0,0,0,.028-.148V6.412a2.375,2.375,0,0,1,1.866-.836Z" transform="translate(8.846)"/><path class="c" d="M20.47,4.747a4,4,0,0,0-.7.066A3.772,3.772,0,0,0,19.08,5h-.005a2.833,2.833,0,0,0-1.256.911,3.064,3.064,0,0,0-.393.743L16.9,5.588a.376.376,0,0,0-.216-.191.357.357,0,0,0-.282.023l-.66.353a.372.372,0,0,0-.165.186v6.163h2.251a9.046,9.046,0,0,1,1.189-.71l-.633-1.3.259-.138a.385.385,0,0,0,.183-.226.4.4,0,0,0-.022-.295l-.284-.578a3.75,3.75,0,0,0,1.954.523Z" transform="translate(10.077 3.072)"/><path class="c" d="M7.705,10.249h.011a6.343,6.343,0,0,1,.713.216l0-.009c.049.018.1.04.146.059s.128.054.191.077.145.057.216.09q.242.105.49.231V8.547a6.044,6.044,0,0,0-2.793.011c-.113-.006-.227-.011-.342-.011a7.748,7.748,0,0,0-1.689.188A8.979,8.979,0,0,0,.113,11.648c-.037.048-.076.094-.113.143,1.149.891.248.251,1.107.9A6.6,6.6,0,0,1,7.705,10.249Z" transform="translate(0 5.419)"/><path class="d" d="M22.34,4.918a.326.326,0,0,0,0-.049V4.758a.452.452,0,0,0-.124-.311.415.415,0,0,0-.3-.13h-.649a.415.415,0,0,0-.3.129.452.452,0,0,0-.124.311v.111a.619.619,0,0,0,.007.076,9.953,9.953,0,0,0-4.5,1.983l0-.912L15.668,6,4.91,5.931,4.9,6.089a.421.421,0,0,0-.007.08V6.28L4.825,8.125,2.178,8.117v0H.127V9.84H5.592c.4.53.8,1.063,1.024,1.364l12.343,1.09.036,0c.033,0,.23.031.517.1h5.665c.081-.809.122-3.464.124-3.7V8.6C25.335,7.611,24.335,5.22,22.34,4.918Z" transform="translate(0.082 2.793)"/><path class="d" d="M8.193,14.644v1.284a.791.791,0,0,0,.217.546.727.727,0,0,0,.523.227h4.675a1.339,1.339,0,0,0,.9-.394l.966-1.037a1.38,1.38,0,0,0,.362-.933V11.391a.793.793,0,0,0-.218-.546.728.728,0,0,0-.524-.227l-6.306.016a.739.739,0,0,0-.424.269.8.8,0,0,0-.167.488Z" transform="translate(5.301 6.87)"/><path class="c" d="M20.069,11.724c-.124-1.329-.871-1.437-.961-1.447h-.015l-2.2-.013a5.751,5.751,0,0,0-1.725-.548l-.022,0L5.978,8.906V11.29h.678a7.936,7.936,0,0,1,2.029,3.139.781.781,0,0,0,.143.262.744.744,0,0,0,.228.185.714.714,0,0,0,.566.043h0V12.785a6.567,6.567,0,0,0-1.052-1.5h8.5a1.857,1.857,0,0,1,.769,1.5s0,.892,0,1.054c0,1.45.044,2.424.512,2.913a.966.966,0,0,0,.327.225.935.935,0,0,0,.386.071.947.947,0,0,0,.423-.086.982.982,0,0,0,.347-.267,1.8,1.8,0,0,0,.337-1.025h.9V11.724Zm-.8,4.467a.243.243,0,0,1-.093.07.234.234,0,0,1-.114.017.226.226,0,0,1-.1-.013.233.233,0,0,1-.086-.057c-.3-.317-.3-1.558-.295-2.871v-.551a2.536,2.536,0,0,0-.654-1.743l1.1.01c.077.026.238.2.3.674h-.346v3.947h.446A.989.989,0,0,1,19.268,16.191Z" transform="translate(3.868 5.763)"/><path class="a" d="M21.063,18.587a3.362,3.362,0,0,1-1.923-.609,3.582,3.582,0,0,1-1.275-1.62,3.754,3.754,0,0,1-.2-2.086,3.66,3.66,0,0,1,.948-1.848,3.421,3.421,0,0,1,1.773-.988,3.331,3.331,0,0,1,2,.206,3.5,3.5,0,0,1,1.553,1.33,3.725,3.725,0,0,1-.432,4.557A3.4,3.4,0,0,1,21.063,18.587Zm0-6.974a3.133,3.133,0,0,0-1.793.567,3.337,3.337,0,0,0-1.188,1.51,3.5,3.5,0,0,0-.184,1.944,3.411,3.411,0,0,0,.883,1.723,3.188,3.188,0,0,0,1.652.921,3.1,3.1,0,0,0,1.864-.191,3.259,3.259,0,0,0,1.448-1.239,3.471,3.471,0,0,0-.4-4.247A3.164,3.164,0,0,0,21.063,11.613Z" transform="translate(11.389 7.355)"/><path class="c" d="M5.209,18.587a3.361,3.361,0,0,1-1.923-.609,3.582,3.582,0,0,1-1.275-1.62,3.754,3.754,0,0,1-.2-2.086,3.66,3.66,0,0,1,.948-1.848,3.421,3.421,0,0,1,1.773-.988,3.331,3.331,0,0,1,2,.206,3.5,3.5,0,0,1,1.553,1.33,3.725,3.725,0,0,1-.432,4.557A3.4,3.4,0,0,1,5.209,18.587Zm0-6.974a3.133,3.133,0,0,0-1.793.567,3.337,3.337,0,0,0-1.188,1.51,3.5,3.5,0,0,0-.184,1.944,3.412,3.412,0,0,0,.883,1.723,3.187,3.187,0,0,0,1.652.921,3.1,3.1,0,0,0,1.864-.191,3.26,3.26,0,0,0,1.448-1.239,3.472,3.472,0,0,0-.4-4.247A3.164,3.164,0,0,0,5.209,11.613Z" transform="translate(1.13 7.355)"/><path class="c" d="M17.083,7.556l-.419.223,4.8,9.777.419-.223Z" transform="translate(10.783 4.889)"/><path class="e" d="M5.633,9.185,3.711,16.324l.453.132L6.086,9.318Z" transform="translate(2.401 5.943)"/></svg>