<svg xmlns="http://www.w3.org/2000/svg" width="37.969" height="22" viewBox="0 0 37.969 22">
  <g id="car_1_" data-name="car (1)" transform="translate(0 -138.482)">
    <path id="Path_9434" data-name="Path 9434" d="M38.729,145.577v-7.063a17.053,17.053,0,0,0-7.663,2.312,13.926,13.926,0,0,0-4.876,4.751Z" transform="translate(-24.248 -0.029)" fill="#d3d3d3"/>
    <path id="Path_9435" data-name="Path 9435" d="M85.3,313.772a2.871,2.871,0,1,0,2.214,2.8A2.559,2.559,0,0,0,85.3,313.772Z" transform="translate(-76.921 -158.88)" fill="#d3d3d3"/>
    <path id="Path_9436" data-name="Path 9436" d="M225.267,145.548h12.6a13.927,13.927,0,0,0-4.876-4.751,17.062,17.062,0,0,0-7.725-2.315v7.066Z" transform="translate(-208.561)" fill="#d3d3d3"/>
    <path id="Path_9437" data-name="Path 9437" d="M36.069,246.271a6.082,6.082,0,0,0-3.621-2.308H0V254.7H4.078a6.988,6.988,0,0,1-.141-1.4c0-3.09,1.991-5.6,4.439-5.6s4.439,2.514,4.439,5.6a6.988,6.988,0,0,1-.141,1.4H25.341a6.988,6.988,0,0,1-.141-1.4c0-3.09,1.991-5.6,4.439-5.6s4.439,2.514,4.439,5.6a6.988,6.988,0,0,1-.141,1.4h4.032V252.06A9.324,9.324,0,0,0,36.069,246.271Z" transform="translate(0 -95.606)" fill="#fd0"/>
    <path id="Path_9438" data-name="Path 9438" d="M372,313.772a2.871,2.871,0,1,0,2.214,2.8A2.559,2.559,0,0,0,372,313.772Z" transform="translate(-342.362 -158.88)" fill="#d3d3d3"/>
  </g>
</svg>
