<svg xmlns="http://www.w3.org/2000/svg" width="37.189" height="37.189" viewBox="0 0 37.189 37.189"><defs><style>.a{fill:#fc0;}</style></defs><path class="a" d="M26.43,19.194a1.793,1.793,0,0,1,1,.3l4.189,2.793a3,3,0,0,0,1.664.5h3.908v-1.2H33.282a1.8,1.8,0,0,1-1-.3l-1.692-1.128V0H7.8V3.6H0v33.59H22.793v-3.6h7.8V28.544c.038-.009.077-.012.115-.021l2.79-.7a7.808,7.808,0,0,1,1.894-.233h1.8v-1.2h-1.8a9.022,9.022,0,0,0-2.185.269l-2.79.7a7.844,7.844,0,0,1-4.362-.167l-1.011-.337a8.994,8.994,0,0,0-2.849-.462H16.959a1.8,1.8,0,0,1,1.8-1.8h6.6a1.795,1.795,0,0,0,.211-3.578l.492-1.821Zm-.758,9.135a8.979,8.979,0,0,0,2.849.462c.291,0,.581-.025.87-.053v3.652h-6.6V30.429a2.164,2.164,0,0,0,.461-.855l.491-1.819a7.742,7.742,0,0,1,.916.239Zm-3.129-.723L22.1,29.26a.991.991,0,0,1-.955.731h-.194a.988.988,0,0,1-.954-1.247l.311-1.153h1.889C22.31,27.592,22.427,27.6,22.544,27.606Zm-3.482-.014-.227.839a2.174,2.174,0,0,0,1.03,2.462l-.188.752,1.164.291.187-.745h.115a2.179,2.179,0,0,0,.452-.053V35.99H1.2V4.8H9V1.2H29.391V19.364l-1.3-.865a2.994,2.994,0,0,0-1.664-.5h-.046l2.5-9.237A2.19,2.19,0,0,0,26.768,6h-.194a2.192,2.192,0,0,0-2.113,1.618l-1.667,6.17V3.6H10.2V4.8h11.4v13.2H20.353a2.966,2.966,0,0,0-1.782.6H12.6v1.2h4.715l-1.2,1.2H12.6v1.2h2.316l-1,1a1.861,1.861,0,0,0,1.86,3.11c0,.029-.009.057-.009.087a1.2,1.2,0,0,0,1.2,1.2Zm4.621-4.2H21.44l2.533-9.372,2.058.686Zm-4.6-3.672a1.813,1.813,0,0,1,1.272-.527h.979L20.842,21a2.972,2.972,0,0,0-2.01.867L15.709,25a.673.673,0,0,1-1.149-.475.668.668,0,0,1,.2-.476Zm.6,3a1.807,1.807,0,0,1,.823-.462L20.2,23.393H19.008ZM27.722,8.445l-.735,2.718-2.058-.686.689-2.548a.991.991,0,0,1,.955-.731h.194a.989.989,0,0,1,.954,1.247Zm-3.105,3.192,2.058.686-.331,1.224-2.058-.686Zm.74,10.556a.6.6,0,1,1,0,1.2h-.432l.325-1.2Zm0,0"/><path class="a" d="M47.6,80H32v6H47.6Zm-1.2,4.8H33.2V81.2H46.4Zm0,0" transform="translate(-29.601 -74.002)"/><path class="a" d="M64,112h1.2v1.2H64Zm0,0" transform="translate(-59.201 -103.602)"/><path class="a" d="M96,112h1.2v1.2H96Zm0,0" transform="translate(-88.802 -103.602)"/><path class="a" d="M128,112h1.2v1.2H128Zm0,0" transform="translate(-118.403 -103.602)"/><path class="a" d="M160,112h1.2v1.2H160Zm0,0" transform="translate(-148.003 -103.602)"/><path class="a" d="M192,112h1.2v1.2H192Zm0,0" transform="translate(-177.604 -103.602)"/><path class="a" d="M39.2,211.6H38V214H33.2v-4.8h3.6V208H32v7.2h7.2Zm0,0" transform="translate(-29.601 -192.405)"/><path class="a" d="M65.542,178.344l-5.574,5.574-.776-.776-.848.848,1.624,1.624,6.422-6.422Zm0,0" transform="translate(-53.969 -164.972)"/><path class="a" d="M38,350H33.2v-4.8h3.6V344H32v7.2h7.2v-3.6H38Zm0,0" transform="translate(-29.601 -318.207)"/><path class="a" d="M59.192,319.142l-.848.848,1.624,1.624,6.422-6.422-.848-.848-5.574,5.574Zm0,0" transform="translate(-53.969 -290.775)"/><path class="a" d="M256,440h1.2v1.2H256Zm0,0" transform="translate(-236.806 -407.01)"/><path class="a" d="M152,440h6.6v1.2H152Zm0,0" transform="translate(-140.603 -407.01)"/><path class="a" d="M168,216h7.8v1.2H168Zm0,0" transform="translate(-155.404 -199.805)"/></svg>