<svg xmlns="http://www.w3.org/2000/svg" width="33.472" height="37.191" viewBox="0 0 33.472 37.191"><defs><style>.a{fill:#f59f00;}</style></defs><path class="a" d="M11.7,11.852c.01-.333.039-1.348.757-1.62s1.439.462,1.577.61a.5.5,0,0,1-.023.7.49.49,0,0,1-.695-.023,1.261,1.261,0,0,0-.525-.356,2.242,2.242,0,0,0-.111.72A2.278,2.278,0,0,0,14.057,14.2a.491.491,0,0,1,.318.338l.022.081a.5.5,0,0,1,.016.09c.4,4.763,4.145,6.3,5.9,6.3s5.5-1.541,5.9-6.3a.5.5,0,0,1,.016-.09l.022-.081a.494.494,0,0,1,.318-.338,2.275,2.275,0,0,0,1.372-2.325c-.018-.609-.143-.737-.145-.739a2,2,0,0,0-.49.374.49.49,0,0,1-.695.023.5.5,0,0,1-.023-.7c.139-.149.867-.88,1.578-.61s.747,1.287.757,1.62a3.324,3.324,0,0,1-1.753,3.167A7.386,7.386,0,0,1,20.31,22a7.387,7.387,0,0,1-6.855-6.986A3.323,3.323,0,0,1,11.7,11.852ZM34.112,26.439a.478.478,0,0,0-.006-.075c-.519-3.393-3.241-6.57-6.936-8.094a.493.493,0,0,0-.373.913c3.369,1.39,5.85,4.25,6.332,7.294l0,5.423a4.226,4.226,0,0,1-.869,2.859,3.254,3.254,0,0,1-2.519.94.494.494,0,0,0,0,.987,4.184,4.184,0,0,0,3.249-1.266,5.144,5.144,0,0,0,1.12-3.564V26.439ZM10.789,35.7A3.254,3.254,0,0,1,8.27,34.76a4.256,4.256,0,0,1-.867-2.9v-5.38c.482-3.044,2.963-5.9,6.332-7.294a.493.493,0,0,0-.373-.913c-3.694,1.525-6.416,4.7-6.935,8.094a.478.478,0,0,0-.006.075l0,5.374A5.174,5.174,0,0,0,7.54,35.422a4.184,4.184,0,0,0,3.249,1.266.494.494,0,0,0,0-.987Zm16.805-.618a2.6,2.6,0,0,1-1.6-.558,7.379,7.379,0,0,1-11.347.012,2.6,2.6,0,0,1-1.585.546,2.648,2.648,0,0,1-2.638-2.651V29.067a2.813,2.813,0,0,1,.57-2.127,2.791,2.791,0,0,1,2.068-.649,5.234,5.234,0,0,1,.645.039,7.4,7.4,0,0,1,13.179-.071.469.469,0,0,1,.022.077,5.1,5.1,0,0,1,.687-.044,2.791,2.791,0,0,1,2.068.649,2.812,2.812,0,0,1,.57,2.127v3.364A2.648,2.648,0,0,1,27.594,35.083Zm-6.014-11.7v3a3.588,3.588,0,0,1,2.059,2.069h1.327a2.2,2.2,0,0,1,.56-1.512,1.815,1.815,0,0,1,.437-.315A6.427,6.427,0,0,0,21.58,23.382ZM15.7,30.964h1.268a3.578,3.578,0,0,1-.223-1.235c0-.1.007-.193.015-.288H15.7Zm4.612,1.362a2.6,2.6,0,1,0-2.584-2.6A2.594,2.594,0,0,0,20.311,32.326Zm3.566-2.6a3.567,3.567,0,0,1-.223,1.235h1.3V29.441H23.862C23.87,29.536,23.877,29.632,23.877,29.729Zm-3.566-6.474c-.1,0-.192.006-.287.01v2.894c.095-.008.19-.015.287-.015s.192.007.287.015V23.264C20.5,23.26,20.407,23.255,20.311,23.255Zm-5.646,3.359a1.843,1.843,0,0,1,.465.327,2.2,2.2,0,0,1,.56,1.512h1.293a3.588,3.588,0,0,1,2.059-2.069v-3A6.478,6.478,0,0,0,14.665,26.613Zm-.1,6.506H13.6a.494.494,0,0,1,0-.987h1.12v-.8H13.6a.494.494,0,0,1,0-.987h1.121v-.865H13.595a.494.494,0,0,1,0-.987H14.7a1.306,1.306,0,0,0-.271-.855,1.96,1.96,0,0,0-1.371-.358,1.957,1.957,0,0,0-1.371.358,2.084,2.084,0,0,0-.284,1.424v3.37a1.652,1.652,0,0,0,3.158.689Zm10.734.709a.523.523,0,0,1,.045-.037,2.631,2.631,0,0,1-.386-1.36v-.479H23.1a3.544,3.544,0,0,1-5.585,0H15.7v.479a2.635,2.635,0,0,1-.391,1.369,6.415,6.415,0,0,0,9.989.029Zm2.3.267a1.662,1.662,0,0,0,1.655-1.664v-3.37a2.085,2.085,0,0,0-.284-1.425,1.96,1.96,0,0,0-1.371-.358,1.957,1.957,0,0,0-1.371.358,1.3,1.3,0,0,0-.271.855H27.06a.494.494,0,0,1,0,.987H25.938v.865H27.06a.494.494,0,0,1,0,.987H25.939v.8H27.06a.494.494,0,0,1,0,.987h-.968A1.653,1.653,0,0,0,27.594,34.1Zm-7-21.737V14.75H19.533a.494.494,0,0,0,0,.987h1.557a.493.493,0,0,0,.491-.494V12.358a.491.491,0,1,0-.982,0ZM12.423,8.352c0-3.483,0-7.073,6.116-7.636C18.62.316,19.381,0,20.311,0S22,.316,22.083.715c6.111.563,6.116,4.153,6.116,7.636a.493.493,0,0,1-.491.494H12.914A.492.492,0,0,1,12.423,8.352Zm.983-.494H27.216c-.013-3.522-.3-6.234-6.905-6.234S13.419,4.336,13.406,7.858Zm7.8-2.245h-1.78a1.529,1.529,0,0,0-1.679,1.3h5.138A1.53,1.53,0,0,0,21.2,5.613Zm2.8,16.236a.5.5,0,0,0,.236.657l2.347,1.107a.491.491,0,0,0,.209.047.485.485,0,0,0,.25-.069.494.494,0,0,0,.241-.393l.186-2.842a.491.491,0,1,0-.98-.064l-.139,2.121-1.7-.8A.489.489,0,0,0,24.005,21.849Zm-8.042-.237-1.7.8-.139-2.121a.491.491,0,1,0-.98.064l.186,2.842a.492.492,0,0,0,.49.462.484.484,0,0,0,.209-.047l2.347-1.107a.493.493,0,0,0-.418-.894ZM11.4,10a.492.492,0,0,0-.491-.493c-.073,0-7.322.086-7.322,7.528v18.84a.491.491,0,1,0,.982,0V17.034c0-6.445,6.082-6.54,6.34-6.54A.493.493,0,0,0,11.4,10Zm18.338-.493a.494.494,0,0,0,0,.987c.259,0,6.339.074,6.339,6.54v18.84a.491.491,0,1,0,.982,0V17.034C37.064,9.593,29.815,9.507,29.742,9.507Z" transform="translate(-3.592)"/></svg>