<svg xmlns="http://www.w3.org/2000/svg" width="37.191" height="37.191" viewBox="0 0 37.191 37.191"><defs><style>.a{fill:#70ae6e;}</style></defs><path class="a" d="M18.6,0a18.6,18.6,0,1,0,18.6,18.6A18.6,18.6,0,0,0,18.6,0Zm0,35.952A17.356,17.356,0,1,1,35.952,18.6,17.356,17.356,0,0,1,18.6,35.952Zm8.058-24.794H10.538a.62.62,0,0,0-.476,1.017l6.055,7.265v9.693a.62.62,0,0,0,.964.516L20.8,27.169a.62.62,0,0,0,.276-.516V19.44l6.055-7.265a.62.62,0,0,0-.476-1.017ZM19.835,26.322l-2.479,1.653v-8.14h2.479Zm.33-7.726H17.026l-5.165-6.2h13.47Zm0,0"/></svg>