<?xml version="1.0" encoding="UTF-8"?>
<svg xmlns="http://www.w3.org/2000/svg" xmlns:xlink="http://www.w3.org/1999/xlink" width="100pt" height="100pt" viewBox="0 0 100 100" version="1.1">
<g id="surface2137158">
<path style=" stroke:none;fill-rule:nonzero;fill:rgb(100%,92.156863%,92.156863%);fill-opacity:1;" d="M 50 100 C 22.386719 100 0 77.613281 0 50 C 0 22.386719 22.386719 0 50 0 C 77.613281 0 100 22.386719 100 50 C 100 77.613281 77.613281 100 50 100 Z M 50 100 "/>
<path style=" stroke:none;fill-rule:nonzero;fill:rgb(98.431373%,62.352941%,53.72549%);fill-opacity:1;" d="M 50 -0.398438 C 22.179688 -0.398438 -0.398438 22.179688 -0.398438 50 C -0.398438 77.820312 22.179688 100.398438 50 100.398438 C 77.820312 100.398438 100.398438 77.820312 100.398438 50 C 100.398438 22.179688 77.820312 -0.398438 50 -0.398438 Z M 50 2.398438 C 76.304688 2.398438 97.601562 23.695312 97.601562 50 C 97.601562 76.304688 76.304688 97.601562 50 97.601562 C 23.695312 97.601562 2.398438 76.304688 2.398438 50 C 2.398438 23.695312 23.695312 2.398438 50 2.398438 Z M 50 6.601562 C 26.039062 6.601562 6.601562 26.039062 6.601562 50 C 6.601562 73.960938 26.039062 93.398438 50 93.398438 C 73.960938 93.398438 93.398438 73.960938 93.398438 50 C 93.398438 37.265625 87.910156 25.804688 79.171875 17.867188 C 78.988281 17.6875 78.722656 17.625 78.476562 17.703125 C 78.234375 17.777344 78.050781 17.980469 78 18.226562 C 77.949219 18.476562 78.035156 18.734375 78.230469 18.902344 C 86.691406 26.585938 92 37.667969 92 50 C 92 73.203125 73.203125 92 50 92 C 26.796875 92 8 73.203125 8 50 C 8 26.796875 26.796875 8 50 8 C 55.082031 8 59.953125 8.90625 64.460938 10.554688 C 64.695312 10.644531 64.957031 10.597656 65.148438 10.4375 C 65.339844 10.277344 65.433594 10.023438 65.390625 9.777344 C 65.347656 9.53125 65.175781 9.328125 64.941406 9.242188 C 60.28125 7.535156 55.25 6.601562 50 6.601562 Z M 68.871094 10.996094 C 68.550781 11.003906 68.273438 11.234375 68.207031 11.550781 C 68.136719 11.867188 68.296875 12.1875 68.589844 12.328125 C 69.527344 12.792969 70.445312 13.292969 71.34375 13.820312 C 71.558594 13.953125 71.832031 13.960938 72.054688 13.835938 C 72.273438 13.714844 72.414062 13.480469 72.414062 13.226562 C 72.414062 12.972656 72.277344 12.738281 72.054688 12.617188 C 71.128906 12.066406 70.179688 11.554688 69.210938 11.074219 C 69.105469 11.019531 68.992188 10.992188 68.871094 10.996094 Z M 74.511719 14.316406 C 74.488281 14.316406 74.464844 14.316406 74.441406 14.320312 C 74.144531 14.339844 73.890625 14.546875 73.816406 14.835938 C 73.738281 15.125 73.851562 15.429688 74.097656 15.597656 C 74.5625 15.921875 75.023438 16.261719 75.472656 16.605469 C 75.671875 16.757812 75.9375 16.792969 76.167969 16.695312 C 76.398438 16.601562 76.5625 16.386719 76.59375 16.140625 C 76.628906 15.890625 76.523438 15.644531 76.328125 15.492188 C 75.859375 15.132812 75.382812 14.789062 74.902344 14.449219 C 74.789062 14.367188 74.652344 14.320312 74.511719 14.316406 Z M 33.199219 30.398438 C 32.484375 30.398438 31.765625 30.675781 31.21875 31.21875 C 30.132812 32.308594 30.132812 34.09375 31.21875 35.179688 L 46.039062 50 L 31.21875 64.820312 C 30.132812 65.90625 30.132812 67.691406 31.21875 68.777344 L 31.21875 68.78125 C 31.765625 69.324219 32.484375 69.601562 33.199219 69.601562 C 33.914062 69.601562 34.636719 69.324219 35.179688 68.78125 L 50 53.960938 L 64.816406 68.777344 C 65.363281 69.324219 66.085938 69.601562 66.800781 69.601562 C 67.515625 69.601562 68.234375 69.324219 68.78125 68.78125 C 69.867188 67.691406 69.867188 65.90625 68.78125 64.820312 L 53.960938 50 L 68.78125 35.179688 C 69.867188 34.09375 69.867188 32.308594 68.78125 31.222656 C 68.234375 30.675781 67.515625 30.398438 66.800781 30.398438 C 66.085938 30.398438 65.363281 30.675781 64.820312 31.21875 L 50 46.039062 L 35.179688 31.21875 C 34.636719 30.675781 33.914062 30.398438 33.199219 30.398438 Z M 33.199219 31.800781 C 33.558594 31.800781 33.914062 31.933594 34.191406 32.210938 L 50 48.019531 L 65.808594 32.210938 C 66.085938 31.933594 66.441406 31.800781 66.800781 31.800781 C 67.160156 31.800781 67.511719 31.933594 67.789062 32.210938 C 68.339844 32.761719 68.339844 33.640625 67.789062 34.191406 L 51.980469 50 L 67.789062 65.808594 C 68.339844 66.359375 68.339844 67.238281 67.789062 67.789062 C 67.511719 68.066406 67.160156 68.199219 66.800781 68.199219 C 66.441406 68.199219 66.085938 68.066406 65.808594 67.789062 L 50 51.980469 L 34.191406 67.789062 C 33.914062 68.066406 33.558594 68.199219 33.199219 68.199219 C 32.839844 68.199219 32.484375 68.066406 32.210938 67.789062 C 31.660156 67.238281 31.660156 66.359375 32.210938 65.808594 L 48.019531 50 L 32.210938 34.191406 C 31.660156 33.640625 31.660156 32.761719 32.210938 32.210938 C 32.488281 31.933594 32.839844 31.800781 33.199219 31.800781 Z M 33.199219 31.800781 "/>
</g>
</svg>
