<svg xmlns="http://www.w3.org/2000/svg" width="40" height="40" viewBox="0 0 40 40"><defs><style>.a{fill:#0486d8;}</style></defs><path class="a" d="M20,0A20,20,0,1,0,40,20,20,20,0,0,0,20,0Zm0,38.906A18.906,18.906,0,1,1,38.906,20,18.906,18.906,0,0,1,20,38.906Zm12.055-7.891a.547.547,0,0,1,.008.773c-.337.344-.692.678-1.055.991a.547.547,0,1,1-.714-.828c.34-.293.672-.6.987-.927a.547.547,0,0,1,.773-.009ZM36.875,20a16.852,16.852,0,0,1-2.2,8.317.547.547,0,0,1-.951-.541,15.777,15.777,0,1,0-7,6.5.547.547,0,0,1,.469.988A16.693,16.693,0,0,1,20,36.875,16.875,16.875,0,1,1,36.875,20ZM12.5,17.264l-1.823,1.823,7.3,7.3L29.326,15.045l-1.437-1.437-9.523,9.525a.562.562,0,0,1-.773,0L14.3,19.841a.547.547,0,0,1,.773-.773l2.906,2.906L27.5,12.448a.547.547,0,0,1,.773,0l2.209,2.21a.547.547,0,0,1,0,.773L18.365,27.552a.547.547,0,0,1-.773,0L9.514,19.474a.547.547,0,0,1,0-.773l2.209-2.21a.547.547,0,0,1,.773.773Z"/></svg>