<svg xmlns="http://www.w3.org/2000/svg" xmlns:xlink="http://www.w3.org/1999/xlink" width="131" height="61" viewBox="0 0 131 61"><defs><style>.a{fill:#fff;stroke:#707070;}.b{clip-path:url(#a);}</style><clipPath id="a"><rect class="a" width="131" height="61" rx="2" transform="translate(1565 231)"/></clipPath></defs><g class="b" transform="translate(-1565 -231)"><g transform="translate(1626 147.75)"><g transform="translate(0 92.25)"><path d="M59.527,111.479a7.858,7.858,0,1,0-9.015,0,13.615,13.615,0,0,0-4.644,2.724,17.618,17.618,0,0,0-6.373-3.473,9.955,9.955,0,1,0-10.3,0,17.765,17.765,0,0,0-6.305,3.432,13.726,13.726,0,0,0-4.589-2.669,7.858,7.858,0,1,0-9.015,0A13.793,13.793,0,0,0,0,124.526v.9a.059.059,0,0,0,.054.054H16.71a18.317,18.317,0,0,0-.15,2.3v.926a7.242,7.242,0,0,0,7.245,7.245H44.914a7.242,7.242,0,0,0,7.245-7.245v-.926a18.317,18.317,0,0,0-.15-2.3H68.774a.059.059,0,0,0,.054-.054v-.9A13.846,13.846,0,0,0,59.527,111.479ZM49.34,105.038a5.679,5.679,0,1,1,5.788,5.679H54.91A5.671,5.671,0,0,1,49.34,105.038Zm-22.8-2.833a7.776,7.776,0,1,1,8.226,7.763h-.9A7.787,7.787,0,0,1,26.543,102.205ZM8.076,105.038a5.679,5.679,0,1,1,5.788,5.679h-.218A5.68,5.68,0,0,1,8.076,105.038Zm9.015,18.249H2.206A11.636,11.636,0,0,1,13.673,112.9h.163a11.515,11.515,0,0,1,7.422,2.765A17.881,17.881,0,0,0,17.091,123.287Zm32.862,5.42a5.074,5.074,0,0,1-5.066,5.066H23.778a5.074,5.074,0,0,1-5.066-5.066v-.926a15.644,15.644,0,0,1,15.157-15.62c.15.014.313.014.463.014s.313,0,.463-.014a15.644,15.644,0,0,1,15.157,15.62Zm1.621-5.42a17.834,17.834,0,0,0-4.126-7.572,11.571,11.571,0,0,1,7.49-2.819H55.1a11.636,11.636,0,0,1,11.467,10.391Z" transform="translate(0 -92.25)"/></g></g></g></svg>