<svg xmlns="http://www.w3.org/2000/svg" width="34.108" height="34.108" viewBox="0 0 34.108 34.108"><path d="M17.054,0A17.054,17.054,0,1,0,34.108,17.054,17.073,17.073,0,0,0,17.054,0Zm0,32.687A15.633,15.633,0,1,1,32.687,17.054,15.651,15.651,0,0,1,17.054,32.687Z"/><path d="M154.307,149.333h-4.263a.71.71,0,0,0-.711.711v12.79a.71.71,0,0,0,.711.711h4.263a.71.71,0,0,0,.711-.711v-12.79A.71.71,0,0,0,154.307,149.333Zm-.711,12.79h-2.842V150.754H153.6Z" transform="translate(-139.385 -139.385)"/><path d="M282.307,149.333h-4.263a.71.71,0,0,0-.711.711v12.79a.71.71,0,0,0,.711.711h4.263a.71.71,0,0,0,.711-.711v-12.79A.71.71,0,0,0,282.307,149.333Zm-.711,12.79h-2.842V150.754H281.6Z" transform="translate(-258.858 -139.385)"/></svg>