<svg xmlns="http://www.w3.org/2000/svg" width="37.078" height="37.078" viewBox="0 0 37.078 37.078"><defs><style>.a{fill:#e30707;}</style></defs><path class="a" d="M31.648,5.43A18.539,18.539,0,0,0,6.409,4.519a.551.551,0,0,0,.721.833A17.445,17.445,0,1,1,5.6,6.845a.551.551,0,1,0-.817-.739,18.539,18.539,0,1,0,26.86-.676Zm0,0" transform="translate(0)"/><path class="a" d="M206.83,347.125a3.117,3.117,0,1,0,2.214,5.3,3.144,3.144,0,0,0,.9-2.182,3.14,3.14,0,0,0-3.117-3.117Zm0,5.133a2.016,2.016,0,0,1,0-4.032,2.016,2.016,0,0,1,0,4.032Zm0,0" transform="translate(-188.991 -321.987)"/><path class="a" d="M166.025,89.621a.55.55,0,0,0,.777-.053,7.186,7.186,0,0,0,2-4.73,5.482,5.482,0,0,0-2.158-4.356,8.73,8.73,0,0,0-5.491-1.694,8.112,8.112,0,0,0-5.322,1.684,4.538,4.538,0,0,0-1.8,3.332,2.345,2.345,0,0,0,.868,1.866,2.722,2.722,0,0,0,1.683.584,2.166,2.166,0,0,0,1.88-1.224,2.565,2.565,0,0,1,2.587-1.343c.575,0,2.449.124,2.449,1.716,0,1.2-1.111,2.055-2.091,2.807-.242.186-.471.361-.684.542a6.628,6.628,0,0,0-2.425,5.484c0,1.671.405,2.784,2.384,2.784a2.849,2.849,0,0,0,1.967-.59,1.742,1.742,0,0,0,.55-1.328c0-1.623,0-2.438,1.655-3.733l.028-.022c.073-.057.157-.123.25-.2a.551.551,0,0,0-.691-.857c-.088.071-.167.133-.236.187l-.029.023c-1.982,1.55-2.078,2.7-2.078,4.6,0,.244,0,.816-1.416.816-.691,0-.9-.145-1.008-.271a2.384,2.384,0,0,1-.275-1.412,5.543,5.543,0,0,1,2.039-4.647c.19-.161.408-.328.639-.506,1.123-.862,2.522-1.936,2.522-3.681,0-1.711-1.394-2.817-3.551-2.817a3.62,3.62,0,0,0-3.5,1.826c-.357.527-.52.741-.968.741a1.369,1.369,0,0,1-1.449-1.35,3.448,3.448,0,0,1,1.4-2.483,7.036,7.036,0,0,1,4.62-1.432c3.856,0,6.548,2.035,6.548,4.949a6.127,6.127,0,0,1-1.728,4.006A.55.55,0,0,0,166.025,89.621Zm0,0" transform="translate(-142.88 -73.083)"/></svg>