<svg xmlns="http://www.w3.org/2000/svg" width="40" height="40" viewBox="0 0 40 40"><path d="M20,0a.667.667,0,0,0-.667.667V3.333a.667.667,0,0,0,1.333,0V1.35A18.667,18.667,0,1,1,1.35,20.667H3.333a.667.667,0,0,0,0-1.333H.667A.667.667,0,0,0,0,20,20,20,0,1,0,20,0Zm0,0"/><path d="M307.607,120.007a3.333,3.333,0,0,0-.555,6.644c.094.008.187.011.279.011a3.333,3.333,0,0,0,.275-6.655Zm-.444,5.315a2,2,0,0,1,.167-3.993,1.461,1.461,0,0,1,.168.007,2,2,0,1,1-.333,3.987Zm0,0" transform="translate(-278.663 -109.996)"/><path d="M172.827,143.5a2.048,2.048,0,0,0-2.828,0l-4.478,4.479a1.667,1.667,0,0,0,2.357,2.357l3.533-3.534,2.633,2.632a1.666,1.666,0,0,0,2.357-2.356Zm2.606,5a.318.318,0,0,1-.444-.008l-3.1-3.106a.667.667,0,0,0-.943,0l-4.006,4.007a.334.334,0,1,1-.472-.471l4.478-4.479a.667.667,0,0,1,.943,0l3.577,3.576a.316.316,0,0,1,.093.232.341.341,0,0,1-.122.247Zm0,0" transform="translate(-151.285 -131.019)"/><path d="M220.9,265.055h.008a1.653,1.653,0,0,0,1.177-.488l3.527-3.527a2,2,0,0,0,0-2.829l-4.477-4.478a1.706,1.706,0,0,0-2.357,0,1.666,1.666,0,0,0,0,2.356l3.533,3.534-2.585,2.585a1.672,1.672,0,0,0-.013,2.343A1.655,1.655,0,0,0,220.9,265.055Zm-.228-1.9,3.056-3.056a.666.666,0,0,0,0-.943l-4.006-4.007a.333.333,0,1,1,.471-.471l4.477,4.477a.666.666,0,0,1,0,.943l-3.528,3.524a.328.328,0,0,1-.234.1.293.293,0,0,1-.239-.1A.333.333,0,0,1,220.677,263.156Zm0,0" transform="translate(-200.105 -232.156)"/><path d="M303,230a1.667,1.667,0,1,0,0-3.333h-3.667v-2a.667.667,0,0,0-1.037-.555l-2,1.333a.667.667,0,0,0-.3.555v2a2,2,0,0,0,2,2Zm-5.667-2v-1.643l.667-.444v1.421a.667.667,0,0,0,.667.667H303a.333.333,0,1,1,0,.667h-5A.667.667,0,0,1,297.333,228Zm0,0" transform="translate(-271.333 -205.333)"/><path d="M122.693,289.348c-.517-.518-1.127-1.143-1.281-1.32a.687.687,0,0,0-.1-.13.666.666,0,0,0-.941,0l-7.276,7.277a1.667,1.667,0,0,0,2.357,2.357l7.242-7.243A.667.667,0,0,0,122.693,289.348Zm-8.185,7.242a.334.334,0,1,1-.472-.471l6.777-6.777c.133.14.288.3.466.477Zm0,0" transform="translate(-103.222 -263.729)"/><path d="M192.841,7.668a.7.7,0,0,0,.117-.01.667.667,0,0,0,.541-.773l-.467-2.626a.667.667,0,0,0-1.312.231l.466,2.627A.666.666,0,0,0,192.841,7.668Zm0,0" transform="translate(-175.735 -3.414)"/><path d="M153.652,17.525a.667.667,0,0,0,.626.438.641.641,0,0,0,.228-.041.666.666,0,0,0,.4-.854l-.913-2.506a.667.667,0,0,0-1.253.456Zm0,0" transform="translate(-139.979 -12.958)"/><path d="M117.445,34.431a.667.667,0,1,0,1.155-.667l-1.333-2.31a.667.667,0,0,0-1.155.667Zm0,0" transform="translate(-106.356 -28.531)"/><path d="M84.91,57.609a.667.667,0,1,0,1.023-.857l-1.717-2.043a.667.667,0,0,0-1.021.856Zm0,0" transform="translate(-76.133 -49.948)"/><path d="M56.681,85.895a.667.667,0,0,0,.857-1.021L55.5,83.159a.667.667,0,0,0-.857,1.021Zm0,0" transform="translate(-49.877 -76.095)"/><path d="M31.463,117.267l2.309,1.333a.667.667,0,1,0,.667-1.155l-2.309-1.333a.667.667,0,0,0-.667,1.155Zm0,0" transform="translate(-28.539 -106.356)"/><path d="M14.563,153.993l2.506.912a.656.656,0,0,0,.228.041.667.667,0,0,0,.228-1.294l-2.506-.912a.667.667,0,0,0-.456,1.253Zm0,0" transform="translate(-12.958 -139.979)"/><path d="M4.073,193l2.626.463a.733.733,0,0,0,.117.01.667.667,0,0,0,.116-1.324L4.3,191.681a.667.667,0,0,0-.231,1.313Zm0,0" transform="translate(-3.229 -175.698)"/></svg>